<svg id="svg" xmlns="http://www.w3.org/2000/svg" xmlns:xlink="http://www.w3.org/1999/xlink" width="400" height="146.3963963963964" viewBox="0, 0, 400,146.3963963963964"><g id="svgg"><path id="path0" d="M20.946 13.935 C 17.845 14.690,15.322 16.733,13.678 19.820 C 12.872 21.332,12.838 23.546,12.838 74.324 L 12.838 127.252 13.810 129.054 C 14.948 131.162,16.712 132.895,18.919 134.070 C 21.310 135.344,136.751 135.616,140.254 134.357 C 143.227 133.288,145.765 130.671,146.619 127.796 C 147.515 124.779,147.652 24.782,146.765 21.260 C 146.026 18.325,142.486 14.784,139.551 14.045 C 137.171 13.446,23.389 13.340,20.946 13.935 M87.206 34.281 C 94.290 36.910,99.453 43.142,100.604 50.453 C 101.095 53.569,101.116 53.604,102.495 53.604 C 104.489 53.604,108.450 54.839,110.782 56.188 C 127.503 65.859,123.334 90.924,104.346 94.883 C 102.586 95.250,101.127 95.589,101.103 95.635 C 101.079 95.682,100.826 97.025,100.541 98.620 C 96.527 121.099,63.554 121.008,59.408 98.508 C 59.103 96.851,58.736 95.492,58.593 95.488 C 44.280 95.057,34.441 78.707,40.639 65.655 C 43.896 58.798,51.129 53.604,57.423 53.604 C 58.807 53.604,58.833 53.562,59.362 50.475 C 61.571 37.596,75.036 29.765,87.206 34.281 M74.490 38.226 C 57.990 44.354,60.471 67.439,77.959 70.508 C 79.537 70.785,79.577 70.755,80.149 68.841 C 82.165 62.101,90.200 54.093,94.993 54.047 C 97.163 54.027,97.059 50.856,94.736 46.244 C 91.190 39.204,81.833 35.499,74.490 38.226 M78.066 46.959 L 79.427 48.423 80.885 46.959 C 82.802 45.034,84.693 44.985,86.521 46.812 C 88.896 49.187,88.346 51.243,83.555 57.892 C 82.131 59.869,80.618 62.297,80.193 63.287 L 79.420 65.087 78.432 62.854 C 77.889 61.627,76.316 59.123,74.937 57.291 C 71.460 52.671,70.511 50.425,71.179 48.401 C 72.195 45.321,75.833 44.560,78.066 46.959 M173.874 74.959 L 173.874 98.198 177.252 98.198 L 180.631 98.198 180.631 90.099 C 180.631 80.852,180.124 81.804,185.271 81.365 C 192.972 80.707,197.134 74.099,195.924 64.453 C 194.748 55.073,191.156 52.143,180.518 51.882 L 173.874 51.719 173.874 74.959 M203.016 52.727 C 202.883 53.236,202.891 63.680,203.034 75.934 L 203.295 98.216 212.571 98.095 L 221.847 97.973 221.847 94.369 L 221.847 90.766 216.329 90.639 L 210.811 90.513 210.811 71.870 C 210.811 61.616,210.688 52.906,210.537 52.514 C 210.072 51.301,203.339 51.491,203.016 52.727 M240.418 75.026 L 228.831 98.198 252.029 98.198 L 275.227 98.198 263.690 75.113 C 257.345 62.416,252.120 51.988,252.079 51.941 C 252.038 51.893,246.790 62.282,240.418 75.026 M282.733 52.102 C 282.568 52.267,282.432 62.706,282.432 75.300 L 282.432 98.198 286.036 98.198 L 289.640 98.198 289.647 89.752 C 289.654 80.830,289.926 79.274,291.153 81.147 C 291.845 82.202,298.251 95.831,298.798 97.410 C 299.082 98.230,307.640 98.664,307.671 97.860 C 307.678 97.675,305.525 93.151,302.887 87.809 L 298.090 78.095 300.803 75.507 C 308.454 68.209,306.238 54.853,296.948 52.273 C 295.109 51.762,283.216 51.619,282.733 52.102 M314.414 75.018 L 314.414 98.233 318.356 98.103 L 322.297 97.973 322.414 76.054 C 322.553 50.012,322.877 51.802,318.029 51.802 L 314.414 51.802 314.414 75.018 M329.587 52.095 C 329.020 52.661,329.249 57.973,329.862 58.482 C 330.183 58.748,331.957 59.026,333.804 59.100 L 337.162 59.234 337.248 72.748 C 337.295 80.180,337.345 88.956,337.360 92.249 L 337.387 98.236 340.878 98.105 L 344.369 97.973 344.595 78.604 L 344.820 59.234 348.649 59.009 L 352.477 58.784 352.477 55.405 L 352.477 52.027 341.186 51.907 C 334.976 51.841,329.756 51.925,329.587 52.095 M359.459 52.636 C 359.459 53.096,360.598 55.883,361.990 58.830 C 363.383 61.778,365.916 67.316,367.621 71.137 L 370.721 78.084 370.721 88.141 L 370.721 98.198 374.520 98.198 L 378.319 98.198 378.484 87.500 L 378.649 76.802 381.676 70.358 C 389.960 52.720,390.112 52.078,386.034 51.896 C 382.126 51.722,382.157 51.688,378.233 60.586 C 376.376 64.797,374.619 68.243,374.330 68.243 C 373.762 68.243,372.170 64.740,369.569 57.767 C 367.363 51.851,367.309 51.802,362.993 51.802 C 359.853 51.802,359.459 51.895,359.459 52.636 M54.505 58.500 C 43.749 61.948,39.561 74.609,46.031 84.113 C 51.679 92.409,64.491 93.371,71.371 86.017 C 75.210 81.912,77.710 74.324,75.223 74.324 C 69.943 74.324,61.438 66.280,59.889 59.822 C 59.284 57.301,58.696 57.157,54.505 58.500 M96.523 58.094 C 90.124 59.615,84.691 65.608,83.936 71.977 L 83.673 74.203 85.396 74.527 C 91.464 75.665,98.039 81.956,99.904 88.407 L 100.676 91.076 102.804 90.875 C 109.908 90.206,116.341 83.333,116.979 75.731 C 117.914 64.572,107.403 55.509,96.523 58.094 M185.148 59.333 C 191.210 63.549,189.113 76.093,182.432 75.573 L 180.856 75.450 180.732 67.583 C 180.664 63.257,180.708 59.456,180.831 59.137 C 181.151 58.303,183.842 58.425,185.148 59.333 M294.374 59.658 C 298.674 61.454,298.931 70.523,294.743 72.664 C 290.239 74.966,289.640 74.216,289.640 66.278 C 289.640 58.872,290.296 57.954,294.374 59.658 M258.782 73.420 C 262.375 80.603,265.315 86.583,265.315 86.709 C 265.315 86.834,261.264 86.937,256.312 86.937 L 247.309 86.937 248.294 84.910 L 249.279 82.883 253.919 82.883 C 256.471 82.883,258.548 82.731,258.535 82.545 C 258.522 82.359,257.050 79.316,255.263 75.783 L 252.015 69.358 246.743 79.949 L 241.471 90.541 254.430 90.541 L 267.388 90.541 268.373 92.568 L 269.358 94.595 252.020 94.595 L 234.682 94.595 243.243 77.477 C 247.952 68.063,251.904 60.360,252.027 60.360 C 252.149 60.360,255.189 66.237,258.782 73.420 M63.301 69.522 C 68.779 74.766,66.873 81.936,61.020 78.101 C 59.955 77.404,59.910 77.415,59.910 78.372 C 59.910 79.711,62.641 82.371,64.372 82.717 C 67.549 83.352,65.350 83.784,58.934 83.784 C 51.915 83.784,51.407 83.624,54.635 82.432 C 56.465 81.756,58.559 79.431,58.559 78.075 C 58.559 77.563,58.326 77.574,57.230 78.142 C 54.944 79.323,52.670 78.671,51.806 76.587 C 51.007 74.659,51.717 73.063,54.775 69.914 C 56.338 68.304,57.957 66.269,58.373 65.393 L 59.130 63.799 60.001 65.498 C 60.481 66.432,61.966 68.243,63.301 69.522 M104.690 68.654 C 106.570 71.233,108.108 73.481,108.108 73.649 C 108.108 74.155,101.299 83.333,100.923 83.333 C 100.545 83.333,93.694 74.155,93.694 73.649 C 93.694 73.142,100.545 63.964,100.923 63.964 C 101.115 63.964,102.810 66.074,104.690 68.654 M79.760 80.038 C 79.463 81.231,78.740 83.068,78.156 84.120 C 77.216 85.810,77.190 85.980,77.931 85.584 C 81.171 83.850,85.620 87.222,84.396 90.484 C 83.967 91.628,84.009 91.669,85.699 91.736 C 87.842 91.821,89.078 92.870,89.465 94.932 C 90.324 99.509,85.033 102.191,81.706 98.864 C 80.814 97.972,80.631 97.919,80.632 98.557 C 80.637 100.633,82.899 102.776,86.149 103.782 C 88.578 104.534,86.434 104.955,80.180 104.955 C 74.715 104.955,73.423 104.835,73.423 104.329 C 73.423 103.984,74.078 103.574,74.887 103.414 C 76.800 103.034,78.238 101.798,79.063 99.822 C 79.990 97.604,79.920 97.508,78.344 98.834 C 75.847 100.935,73.331 100.919,71.358 98.790 C 68.838 96.071,70.615 91.687,74.238 91.687 L 75.902 91.687 75.902 89.556 L 75.901 87.424 74.891 88.711 C 73.467 90.525,69.647 92.943,66.274 94.166 L 63.404 95.206 63.650 97.589 C 64.760 108.345,77.892 114.724,87.921 109.379 C 102.056 101.845,98.175 80.842,82.155 78.178 L 80.302 77.869 79.760 80.038 " stroke="none" fill="#6842FF" fill-rule="evenodd"></path></g></svg>