<svg id="svg" xmlns="http://www.w3.org/2000/svg" xmlns:xlink="http://www.w3.org/1999/xlink" width="400" height="362.5" viewBox="0, 0, 400,362.5"><g id="svgg"><path id="path0" d="M35.625 14.919 C 27.020 17.014,20.018 22.683,15.455 31.250 C 13.220 35.447,13.125 41.590,13.125 182.500 L 13.125 329.375 15.823 334.375 C 18.980 340.226,23.877 345.033,30.000 348.295 C 36.635 351.829,356.984 352.586,366.704 349.090 C 374.955 346.123,381.998 338.863,384.368 330.883 C 386.854 322.512,387.235 45.020,384.774 35.246 C 382.723 27.101,372.899 17.277,364.754 15.226 C 358.151 13.563,42.403 13.269,35.625 14.919 M219.497 71.380 C 239.154 78.675,253.482 95.968,256.677 116.257 C 258.038 124.903,258.096 125.000,261.925 125.000 C 267.456 125.000,278.450 128.428,284.921 132.171 C 331.321 159.008,319.752 228.564,267.061 239.550 C 262.177 240.569,258.127 241.508,258.060 241.638 C 257.993 241.769,257.292 245.496,256.502 249.921 C 245.363 312.298,153.863 312.048,142.358 249.609 C 141.511 245.012,140.493 241.240,140.096 241.228 C 100.378 240.033,73.073 194.663,90.274 158.442 C 99.311 139.413,119.383 125.000,136.847 125.000 C 140.689 125.000,140.761 124.884,142.230 116.317 C 148.359 80.579,185.724 58.848,219.497 71.380 M184.209 82.327 C 138.423 99.333,145.307 163.394,193.836 171.910 C 198.216 172.679,198.325 172.596,199.914 167.284 C 205.507 148.580,227.805 126.357,241.105 126.231 C 247.129 126.174,246.839 117.375,240.393 104.578 C 230.552 85.041,204.588 74.758,184.209 82.327 M194.132 106.563 L 197.911 110.625 201.955 106.563 C 207.275 101.219,212.524 101.082,217.596 106.154 C 224.188 112.745,222.661 118.448,209.366 136.901 C 205.413 142.387,201.214 149.123,200.034 151.870 L 197.889 156.865 195.149 150.671 C 193.642 147.264,189.278 140.317,185.452 135.233 C 175.802 122.413,173.167 116.179,175.021 110.562 C 177.841 102.016,187.938 99.903,194.132 106.563 M128.750 138.588 C 98.904 148.157,87.281 183.289,105.237 209.663 C 120.909 232.684,156.464 235.355,175.554 214.946 C 186.209 203.555,193.146 182.500,186.244 182.500 C 171.592 182.500,147.991 160.178,143.691 142.255 C 142.013 135.260,140.382 134.859,128.750 138.588 M245.352 137.462 C 227.595 141.682,212.516 158.313,210.423 175.985 L 209.692 182.164 214.475 183.061 C 231.312 186.220,249.559 203.678,254.734 221.580 L 256.875 228.985 262.782 228.429 C 282.495 226.573,300.348 207.499,302.116 186.404 C 304.712 155.436,275.544 130.287,245.352 137.462 M153.162 169.173 C 168.361 183.727,163.071 203.622,146.831 192.981 C 143.876 191.045,143.750 191.076,143.750 193.731 C 143.750 197.448,151.329 204.828,156.133 205.789 C 164.949 207.552,158.845 208.750,141.042 208.750 C 121.565 208.750,120.155 208.307,129.111 204.998 C 134.190 203.122,140.000 196.671,140.000 192.908 C 140.000 191.487,139.355 191.519,136.312 193.093 C 129.971 196.372,123.658 194.563,121.262 188.780 C 119.045 183.428,121.014 179.001,129.500 170.262 C 133.838 165.794,138.331 160.148,139.486 157.715 L 141.585 153.291 144.004 158.006 C 145.335 160.599,149.455 165.624,153.162 169.173 M268.015 166.765 C 273.232 173.923,277.500 180.160,277.500 180.625 C 277.500 182.031,258.605 207.500,257.562 207.500 C 256.513 207.500,237.500 182.030,237.500 180.625 C 237.500 179.220,256.513 153.750,257.562 153.750 C 258.095 153.750,262.799 159.607,268.015 166.765 M198.835 198.356 C 198.009 201.667,196.005 206.764,194.382 209.683 C 191.775 214.372,191.702 214.846,193.758 213.746 C 202.750 208.934,215.096 218.290,211.699 227.342 C 210.507 230.518,210.625 230.631,215.315 230.818 C 221.263 231.054,224.692 233.964,225.766 239.686 C 228.148 252.387,213.465 259.829,204.235 250.599 C 201.758 248.122,201.251 247.976,201.255 249.744 C 201.267 255.508,207.544 261.453,216.563 264.245 C 223.303 266.331,217.355 267.500,200.000 267.500 C 184.834 267.500,181.250 267.168,181.250 265.764 C 181.250 264.804,183.066 263.668,185.313 263.223 C 190.620 262.171,194.610 258.740,196.901 253.257 C 199.473 247.101,199.278 246.833,194.904 250.514 C 187.975 256.344,180.994 256.300,175.518 250.392 C 168.525 242.846,173.457 230.682,183.510 230.682 L 188.129 230.682 188.127 224.767 L 188.125 218.851 185.322 222.423 C 181.371 227.457,170.770 234.168,161.411 237.560 L 153.446 240.446 154.129 247.058 C 157.209 276.906,193.651 294.609,221.480 279.777 C 260.704 258.870,249.935 200.588,205.481 193.193 L 200.338 192.337 198.835 198.356 " stroke="none" fill="#000000" fill-rule="evenodd"></path></g></svg>